<svg xmlns="http://www.w3.org/2000/svg" viewBox="0 0 752 162">
	<linearGradient id="lg1" gradientUnits="userSpaceOnUse" x1="12.0551" y1="92.7236" x2="101.7027" y2="92.7236">
		<stop offset="0" stop-color="#FF00FF" />
		<stop offset="0.0819" stop-color="#EC00FA" />
		<stop offset="0.2472" stop-color="#BC00ED" />
		<stop offset="0.4791" stop-color="#6F00D8" />
		<stop offset="0.5173" stop-color="#6200D4" />
		<stop offset="0.6096" stop-color="#6C32DD" />
		<stop offset="0.8813" stop-color="#89C0F5" />
		<stop offset="1" stop-color="#94F9FF" />
	</linearGradient>
	<linearGradient id="lg2" gradientUnits="userSpaceOnUse" x1="12.3606" y1="126.7097" x2="101.7317" y2="126.7097">
		<stop offset="0" stop-color="#FF00FF" />
		<stop offset="0.0819" stop-color="#EC00FA" />
		<stop offset="0.2472" stop-color="#BC00ED" />
		<stop offset="0.4791" stop-color="#6F00D8" />
		<stop offset="0.5173" stop-color="#6200D4" />
		<stop offset="0.6096" stop-color="#6C32DD" />
		<stop offset="0.8813" stop-color="#89C0F5" />
		<stop offset="1" stop-color="#94F9FF" />
	</linearGradient>
	<path fill="url(#lg1)" d="M84.11,103.94c1.29-2.1,1.41-4.65,0.3-6.87L62.25,52.74c-1.2-2.4-3.63-3.9-6.3-3.9s-5.1,1.5-6.3,3.9
		l-36.84,73.64c-1.11,2.19-0.99,4.77,0.3,6.87s3.54,3.36,6,3.36h6.33c2.67,0,5.07-1.47,6.3-3.87l6.27-12.33l7.26-14.55l9-17.91
		c0.33-0.66,0.96-1.05,1.68-1.05c0.75,0,1.35,0.39,1.68,1.05l7.68,15.42c1.2,2.4,3.63,3.9,6.3,3.9h6.54
		C80.57,107.3,82.82,106.04,84.11,103.94z" />

	<path fill="url(#lg2)" d="M99.05,126.38l-2.88-5.7
		c-1.2-2.4-3.63-3.87-6.3-3.87h-6.36c-2.46,0-4.71,1.26-6,3.33c-1.29,2.1-1.41,4.65-0.33,6.84l2.85,5.7
		c1.2,2.43,3.63,3.93,6.33,3.93h6.39c2.46,0,4.71-1.26,6-3.36C100.04,131.15,100.16,128.57,99.05,126.38z" />
	<g fill="white">
		<path d="M190.87,131.19h-77.42l41.66-58.44h-34.74V50.97h75.81l-40.77,57.7h35.47V131.19z" />
		<path d="M238.56,48.76c23.11,0,41.95,19.28,41.95,42.24c0,23.26-18.84,42.25-41.95,42.25
		c-23.11,0-41.8-18.99-41.8-42.25C196.75,68.04,215.45,48.76,238.56,48.76z M238.56,110.29c10.75,0,19.28-8.68,19.28-19.58
		c0-10.6-8.54-19.87-19.28-19.87s-18.99,9.27-18.99,19.87C219.57,101.6,227.81,110.29,238.56,110.29z" />
		<path d="M316.57,50.97l1.03,11.04c4.86-6.04,13.39-13.25,24.14-13.25c10.75,0,20.46,3.24,26.2,13.25
		c6.18-6.92,18.69-13.25,29.44-13.25c17.07,0,31.65,7.95,31.65,38.56v43.86h-23.99V92.04c0-14.87-2.94-21.2-13.25-21.2
		c-8.98,0-15.9,5.89-18.55,11.92c0.15,1.47,0.15,2.94,0.15,4.56v43.86h-23.99V92.04c0-14.87-2.94-21.2-13.25-21.2
		c-8.98,0-16.04,5.89-18.55,12.07v48.28H293.6V50.97H316.57z" />
		<path d="M448.15,131.19V20.79h7.95v110.4H448.15z" />
		<path
			d="M514.68,48.91c11.92,0,24.14,6.48,30.18,17.37l0.59-15.31h7.36v80.22h-7.21L545,115.88
		c-6.04,10.89-18.4,17.37-30.32,17.37c-23.26,0-40.18-17.37-40.18-42.1C474.5,66.57,491.42,48.91,514.68,48.91z M513.65,56.86
		c-18.84,0-31.5,15.75-31.5,34.44c0,18.84,12.66,34,31.5,34c18.84,0,31.5-15.16,31.5-34C545.15,72.61,531.46,56.86,513.65,56.86z" />
		<path d="M584.59,66.28c2.8-5.15,14.43-17.52,29.73-17.52c14.87,0,29.29,6.18,29.29,37.68v44.75h-7.95V92.48
		c0-18.25-0.74-35.77-22.82-35.77c-13.1,0-24.29,12.81-28.26,21.64v52.84h-7.95V50.97h7.36L584.59,66.28z" />
		<path
			d="M699.4,48.91c11.92,0,24.14,6.48,30.18,17.37V20.79h7.95v110.4h-7.21l-0.59-15.31
		c-6.03,10.89-18.4,17.37-30.32,17.37c-23.26,0-40.18-17.37-40.18-42.1C659.22,66.57,676.15,48.91,699.4,48.91z M698.37,56.86
		c-18.84,0-31.5,15.75-31.5,34.44c0,18.84,12.66,34,31.5,34c18.84,0,31.5-15.16,31.5-34C729.87,72.61,716.18,56.86,698.37,56.86z" />
	</g>
</svg>