<svg xmlns="http://www.w3.org/2000/svg" viewBox="0 -13.7 365.7 247">
    <defs>
        <clipPath id="__id1337_sbozdrq67c">
            <path d="M 0 154 L 143 154 L 143 233.371094 L 0 233.371094 Z M 0 154" />
        </clipPath>
    </defs>
    <path
        d="M 89.996094 135.625 C 121.03125 66.578125 168.039062 43.917969 241.992188 39.539062 C 280.890625 37.222656 271.183594 -2.867188 234.214844 1.539062 C 155.992188 10.847656 111.546875 61.488281 89.996094 135.625"
        fill-rule="evenodd" fill="rgb(255, 215, 43)" />
    <path
        d="M 82.21875 184.183594 C 67.421875 117.527344 89.207031 75.800781 140.308594 32.730469 C 167.167969 10.085938 138.53125 -13.65625 114.195312 9.445312 C 62.636719 58.367188 57.824219 118.953125 82.21875 184.183594"
        fill-rule="evenodd" fill="rgb(255, 215, 43)" />
    <path
        d="M 109.132812 221.613281 C 59.613281 184.976562 49.753906 143.679688 59.074219 84.148438 C 63.96875 52.835938 30.4375 53.613281 27.527344 83.730469 C 21.382812 147.535156 53.925781 191.660156 109.132812 221.613281"
        fill-rule="evenodd" fill="rgb(255, 215, 43)" />
    <path clip-path="url(#__id1337_sbozdrq67c)"
        d="M 142.914062 228.464844 C 87.570312 233.136719 56.285156 211.019531 27.121094 165.160156 C 11.800781 141.003906 -10.457031 161.527344 5.519531 183.65625 C 39.367188 230.542969 87.679688 241.054688 142.914062 228.464844"
        fill-rule="evenodd" fill="rgb(255, 215, 43)" />
    <path
        d="M 113.652344 111.714844 C 184.265625 66.34375 241.632812 73.734375 313.007812 114.378906 C 350.53125 135.75 365.746094 92.664062 328.746094 74.398438 C 250.441406 35.710938 178.523438 55.859375 113.652344 111.714844"
        fill-rule="evenodd" fill="rgb(255, 231, 192)" />
</svg>