<svg xmlns="http://www.w3.org/2000/svg" viewBox="-18.4 0 227.9 401.6">
    <defs>
        <clipPath id="__id1245_s1rju55lvb">
            <path d="M 48 100 L 191 100 L 191 401.621094 L 48 401.621094 Z M 48 100" />
        </clipPath>
    </defs>
    <path fill-rule="evenodd" fill="rgb(236, 178, 46)"
        d="M 80.945312 81.050781 C 92.507812 62.152344 97.617188 39.457031 75.777344 24.125 C 89.210938 38.167969 78.597656 61.621094 65.019531 79.980469 C 53.488281 95.527344 38.363281 107.4375 25.511719 121.792969 C 5.992188 143.675781 -9.511719 170.011719 6.925781 192.625 C -0.617188 172.382812 15.894531 149.820312 34.65625 130.488281 C 50.488281 114.234375 68.925781 100.652344 80.945312 81.050781" />
    <path fill-rule="evenodd" fill="rgb(255, 222, 89)"
        d="M 119.054688 0.00390625 C 174.527344 53.917969 88.175781 115.253906 53.394531 153.375 C 5.148438 206.230469 -18.363281 273.15625 63.089844 301.523438 C 15.027344 268.882812 38.265625 212.339844 80.1875 166.414062 C 115.824219 127.34375 196.644531 64.945312 119.054688 0.00390625" />
    <path fill-rule="evenodd" fill="rgb(236, 178, 46)"
        d="M 119.039062 320.570312 C 107.480469 339.472656 102.371094 362.183594 124.214844 377.523438 C 110.777344 363.457031 121.390625 340.011719 134.96875 321.644531 C 146.503906 306.097656 161.609375 294.183594 174.464844 279.832031 C 193.996094 257.949219 209.519531 231.628906 193.074219 209 C 200.609375 229.238281 184.097656 251.804688 165.316406 271.136719 C 149.5 287.414062 131.0625 300.96875 119.039062 320.570312" />
    <path clip-path="url(#__id1245_s1rju55lvb)" fill-rule="evenodd" fill="rgb(255, 222, 89)"
        d="M 80.933594 401.621094 C 25.449219 347.722656 111.8125 286.371094 146.59375 248.246094 C 194.824219 195.390625 218.351562 128.46875 136.878906 100.101562 C 184.964844 132.738281 161.707031 189.300781 119.800781 235.210938 C 84.160156 274.28125 3.34375 336.679688 80.933594 401.621094" />
</svg>