<svg xmlns="http://www.w3.org/2000/svg" width="512" height="512" viewBox="234.7 342.6 135.3 120.2"
    fill="rgb(158, 119, 243)">
    <path d="M255 332.36H285.026V347.36H255z" transform="translate(9.9 10.253)" />
    <path d="M240 347.33H255.088V362.59499999999997H240z" transform="translate(9.9 10.253)" />
    <path d="M224.82 362.51H240.08499999999998V392.536H224.82z" transform="translate(9.9 10.253)" />
    <path d="M284.97 347.27H299.97V362.27H284.97z" transform="translate(9.9 10.253)" />
    <path d="M300.06 332.33H330.174V347.59499999999997H300.06z" transform="translate(9.9 10.253)" />
    <path d="M329.82 347.33H345.085V362.68399999999997H329.82z" transform="translate(9.9 10.253)" />
    <path d="M344.88 362.42H360.145V392.446H344.88z" transform="translate(9.9 10.253)" />
    <path d="M329.82 392.07H345.085V407.424H329.82z" transform="translate(9.9 10.253)" />
    <path d="M315 407.24H330V422.24H315z" transform="translate(9.9 10.253)" />
    <path d="M300 422.24H315.088V437.505H300z" transform="translate(9.9 10.253)" />
    <path d="M240.09 392.42H255.09V407.42H240.09z" transform="translate(9.9 10.253)" />
    <path d="M255 407.42H270V422.42H255z" transform="translate(9.9 10.253)" />
    <path d="M284.94 437.51H299.94V452.51H284.94z" transform="translate(9.9 10.253)" />
    <path d="m255.08 377.34v-30.015h15.28v60.03h-15.28v-30.015z" transform="translate(9.9 10.253)" />
    <path d="m269.97 384.84v-37.515h15.015v75.03h-15.015v-37.515z" transform="translate(9.9 10.253)" />
    <path d="m299.95 384.91v-37.589h15.104v75.178h-15.104v-37.589z" transform="translate(9.9 10.253)" />
    <path d="m314.7 377.34v-30.015h15.369v60.03h-15.369v-30.015z" transform="translate(9.9 10.253)" />
    <path d="m239.95 377.47v-15.015h16.03v30.03h-16.03v-15.015z" transform="translate(9.9 10.253)" />
    <path d="m329.83 377.43v-14.979h15.28v29.958h-15.28v-14.979z" transform="translate(9.9 10.253)" />
    <path d="m284.8 399.86v-37.57h15.434v75.14h-15.434v-37.57z" transform="translate(9.9 10.253)" />
    <path d="m269.97 429.88v-7.4779h15.09v14.956h-15.09v-7.4779z" transform="translate(9.9 10.253)" />
    <path d="m315.25 414.8v-7.4246h14.672v14.849h-14.672v-7.4246z" transform="translate(9.9 10.253)" />
    <path d="m300 429.93v-7.5793h15.07v15.159h-15.07v-7.5793z" transform="translate(9.9 10.253)" />
    <path d="m285.07 444.87v-7.4909h14.938v14.982h-14.938v-7.4909z" transform="translate(9.9 10.253)" />
    <path d="m264.27 372.04v-30.015h15.28v60.03h-15.28v-30.015z" transform="translate(.707 15.91)" />
    <path d="m279.16 379.54v-37.515h15.015v75.03h-15.015v-37.515z" transform="translate(.707 15.91)" />
    <path d="m309.15 379.61v-37.589h15.104v75.178h-15.104v-37.589z" transform="translate(.707 15.91)" />
    <path d="m323.9 372.04v-30.015h15.369v60.03h-15.369v-30.015z" transform="translate(.707 15.91)" />
    <path d="m249.15 372.16v-15.015h16.03v30.03h-16.03v-15.015z" transform="translate(.707 15.91)" />
    <path d="m339.02 372.13v-14.979h15.28v29.958h-15.28v-14.979z" transform="translate(.707 15.91)" />
    <path d="m293.99 394.56v-37.57h15.434v75.14h-15.434v-37.57z" transform="translate(.707 15.91)" />
</svg>